<?xml version="1.0" standalone="no"?><!DOCTYPE svg PUBLIC "-//W3C//DTD SVG 1.1//EN" "http://www.w3.org/Graphics/SVG/1.1/DTD/svg11.dtd"><svg t="1696042506461" class="icon" viewBox="0 0 1024 1024" version="1.1" xmlns="http://www.w3.org/2000/svg" p-id="9045" xmlns:xlink="http://www.w3.org/1999/xlink" width="200" height="200"><path d="M945.401081 0H78.598919a66.421622 66.421622 0 0 0-66.421622 66.421622v495.283892a66.421622 66.421622 0 0 0 66.421622 66.421621h415.135135a22.140541 22.140541 0 0 0-3.763892 11.734487v98.525405H364.211892a22.140541 22.140541 0 0 0-22.140541 22.140541v241.331891a22.140541 22.140541 0 0 0 22.140541 22.140541h287.827027a22.140541 22.140541 0 0 0 22.14054-22.140541v-241.331891a22.140541 22.140541 0 0 0-22.14054-22.140541h-117.787676V639.861622a22.140541 22.140541 0 0 0-3.985297-11.734487h415.135135a66.421622 66.421622 0 0 0 66.421622-66.421621V66.421622a66.421622 66.421622 0 0 0-66.421622-66.421622zM630.562595 979.718919h-243.545946v-197.050811h243.545946z m336.979027-418.013405a22.140541 22.140541 0 0 1-22.140541 22.14054H78.598919a22.140541 22.140541 0 0 1-22.140541-22.14054V66.421622a22.140541 22.140541 0 0 1 22.140541-22.140541h866.802162a22.140541 22.140541 0 0 1 22.140541 22.140541z" fill="#CAD3DA" p-id="9046"></path><path d="M226.054919 859.052973H34.317838a22.140541 22.140541 0 0 0 0 44.281081h191.737081a22.140541 22.140541 0 0 0 0-44.281081zM984.147027 859.052973h-191.737081a22.140541 22.140541 0 1 0 0 44.281081h191.737081a22.140541 22.140541 0 0 0 0-44.281081zM787.096216 360.448c-7.527784 0-22.140541-40.295784-25.683027-53.580108-13.284324-39.188757-28.561297-83.469838-67.750054-83.469838s-54.244324 44.281081-67.528649 83.469838c-4.428108 13.284324-18.155243 53.580108-25.683027 53.580108s-22.140541-40.295784-25.683027-53.580108c-13.50573-39.188757-28.561297-83.469838-67.750054-83.469838s-54.244324 44.281081-67.750054 83.469838c-4.428108 13.284324-18.155243 53.580108-25.683027 53.580108s-22.140541-40.295784-25.683027-53.580108c-13.50573-39.188757-28.561297-83.469838-67.750054-83.469838s-54.46573 44.281081-67.750054 83.469838c-4.428108 13.284324-18.376649 53.580108-25.904432 53.580108a22.140541 22.140541 0 0 0 0 44.281081c39.410162 0 54.46573-44.281081 67.750054-83.469838 4.649514-13.284324 18.376649-53.580108 25.904432-53.580108s22.140541 40.295784 25.683027 53.580108c13.50573 38.967351 28.561297 83.469838 67.750054 83.469838s54.244324-44.281081 67.750054-83.469838c4.428108-13.284324 18.155243-53.580108 25.683027-53.580108s22.140541 40.295784 25.683027 53.580108c13.50573 38.967351 28.561297 83.469838 67.750054 83.469838s54.244324-44.281081 67.528649-83.469838c4.649514-13.284324 18.376649-53.580108 25.683027-53.580108s22.140541 40.295784 25.904433 53.580108c13.284324 38.967351 28.339892 83.469838 67.528648 83.469838a22.140541 22.140541 0 0 0 0-44.281081zM512.110703 914.404324a33.210811 33.210811 0 1 0-33.210811-33.21081 33.210811 33.210811 0 0 0 33.210811 33.21081z" fill="#CAD3DA" p-id="9047"></path></svg>